<svg xmlns="http://www.w3.org/2000/svg" width="300" height="400" viewBox="0 0 79.375 105.833"><circle fill="#f9f9f9" cx="37.19" cy="36.519" r="17.944"/><path fill="#1e293b" d="M38.816 2.658c-7.937.18-15.777 3.138-21.842 8.26-6.28 5.24-10.622 12.733-12.053 20.785-.972 5.438-.665 11.086.753 16.419 1.558 5.84 4.61 11.152 8.127 16.023 4.923 6.808 10.571 13.085 15.08 20.193 3.197 4.972 5.808 10.332 7.602 15.97.39 1.14 1.023 2.42 2.29 2.757 1.168.323 2.578.015 3.28-1.038.885-1.29 1.144-2.874 1.73-4.303 2.551-7.05 6.476-13.523 10.961-19.503 4.682-6.342 9.998-12.235 14.094-18.995 2.85-4.69 4.956-9.88 5.748-15.33.86-5.754.46-11.727-1.435-17.244-2.618-7.819-8.087-14.633-15.15-18.886a35.379 35.379 0 0 0-19.185-5.11zm.845 22.317c3.938-.028 7.817 1.846 10.234 4.964a12.987 12.987 0 0 1 2.422 10.996c-.77 3.364-3.004 6.41-5.987 8.166-3.504 2.109-7.954 2.414-11.713.796a13.015 13.015 0 0 1-4.655-3.353 13.026 13.026 0 0 1-2.998-6.038c-.798-3.842.297-8.04 2.875-11.004 1.672-1.989 4.14-3.5 6.611-4.118a13.105 13.105 0 0 1 3.211-.409z"/><path stroke-linecap="square" stroke-width=".632" stroke="#1e293b" fill="#ea4849" d="M39.687 2.965A35.015 35.015 0 0 0 4.673 37.979c0 18.7 14.871 34.43 34.965 35.055-5.473 10.65-5.364 19.448-2.98 26.804.643 1.985 1.356 3.03 3.03 3.03 1.673 0 2.386-1.045 3.03-3.03 8.775-27.087 31.984-36.186 31.984-61.859A35.015 35.015 0 0 0 39.687 2.965zm0 13.381a21.588 21.588 0 0 1 21.589 21.588 21.588 21.588 0 0 1-21.589 21.588 21.588 21.588 0 0 1-21.588-21.588 21.588 21.588 0 0 1 21.588-21.588z"/></svg>