<svg xmlns="http://www.w3.org/2000/svg" viewBox="0 0 74.381 105.833" height="400" width="281.125"><circle r="17.944" cy="36.519" cx="37.19" fill="#f9f9f9"/><path d="M36.273.012c-8.355.19-16.607 3.303-22.992 8.696C6.671 14.223 2.1 22.11.594 30.586c-1.023 5.724-.7 11.67.792 17.283 1.64 6.148 4.854 11.74 8.555 16.867 5.182 7.166 11.128 13.774 15.874 21.256 3.365 5.234 6.114 10.876 8.002 16.81.41 1.201 1.077 2.549 2.41 2.903 1.23.34 2.715.016 3.454-1.093.931-1.358 1.204-3.025 1.82-4.529 2.686-7.422 6.818-14.235 11.539-20.53 4.928-6.676 10.524-12.879 14.836-19.995 2.999-4.936 5.217-10.4 6.05-16.136.906-6.058.484-12.345-1.51-18.153-2.756-8.23-8.513-15.403-15.948-19.88C50.431 1.714 43.337-.169 36.273.011zm.89 23.492c4.145-.029 8.228 1.943 10.772 5.225 2.563 3.241 3.51 7.576 2.55 11.575-.811 3.541-3.162 6.747-6.302 8.596-3.689 2.22-8.373 2.541-12.33.838a13.7 13.7 0 0 1-4.9-3.53 13.712 13.712 0 0 1-3.156-6.355c-.84-4.045.313-8.463 3.027-11.584 1.76-2.093 4.358-3.684 6.959-4.334a13.795 13.795 0 0 1 3.38-.431z" fill="#1e293b"/><path d="M37.19.333A36.858 36.858 0 0 0 .333 37.191c0 19.685 15.654 36.242 36.805 36.9-5.761 11.21-5.646 20.472-3.137 28.215.677 2.09 1.428 3.19 3.19 3.19 1.761 0 2.512-1.1 3.19-3.19 9.236-28.513 33.667-38.091 33.667-65.115A36.858 36.858 0 0 0 37.19.333zm0 14.086a22.724 22.724 0 0 1 22.725 22.724A22.724 22.724 0 0 1 37.19 59.868a22.724 22.724 0 0 1-22.724-22.725A22.724 22.724 0 0 1 37.19 14.419z" fill="#ea4849" stroke="#1e293b" stroke-width=".665" stroke-linecap="square"/></svg>