<svg version="1" xmlns="http://www.w3.org/2000/svg" width="682.667" height="682.667" viewBox="0 0 512.000000 512.000000"><path d="M231.2 7.6c-65.1 9.4-121 55.8-141.7 117.7-7 20.8-9.4 37.3-9 60.7.7 41.6 13.5 77.7 42.1 119 7.6 11.1 15.9 22 41.7 55.1 39.6 50.6 59.5 84.3 72.6 122.9 2.4 6.9 5.2 14 6.3 15.9 5.9 9.6 19.7 9.6 25.6 0 1.1-1.9 3.2-7 4.7-11.4 11.3-33.1 26.9-62.7 50.7-96 6.5-9.1 12.4-17.3 13.3-18.2 6.7-8.2 37.6-48.1 44.9-58.2 27.5-37.7 41-67.3 47.2-103.1 2.2-12.8 2.5-44.5.5-56-6.8-39.5-23.4-72.2-50.2-98.9-26.3-26.1-60.8-43.5-98.4-49.6-8.2-1.3-40.9-1.3-50.3.1zm43.5 112.3c31.4 10.1 50.1 40.3 44.8 72.8-1.1 6.8-1 6.3-3.7 12.9C306 229.8 282.1 246 256 246c-40.6 0-71.1-37.3-63-77 3.5-16.9 12.5-30.6 26.8-40.8 5.5-3.9 17.5-8.9 24.4-10.1 7.8-1.5 23.3-.5 30.5 1.8z"/></svg>